# Blender 4.0.2
# www.blender.org
mtllib machete.mtl
o Guard
v 0.146276 0.050834 0.000587
v 0.146276 -0.050834 0.000587
v 0.089733 0.031184 0.060415
v 0.089733 -0.031184 0.060415
v -0.146276 0.050834 0.000587
v -0.146276 -0.050834 0.000587
v -0.089733 0.031184 0.060415
v -0.089733 -0.031184 0.060415
v -0.146276 -0.050834 0.035053
v -0.146276 0.050834 0.035053
v 0.146276 0.050834 0.035053
v 0.146276 -0.050834 0.035053
vn -0.0000 1.0000 -0.0000
vn -0.0000 -0.0000 1.0000
vn -1.0000 -0.0000 -0.0000
vn -0.0000 -1.0000 -0.0000
vn 1.0000 -0.0000 -0.0000
vn -0.0000 -0.0000 -1.0000
vn -0.4093 -0.0000 0.9124
vn 0.4093 -0.0000 0.9124
vn -0.0000 0.7905 0.6125
vn -0.0000 -0.7905 0.6125
vt 0.625000 0.500000
vt 0.875000 0.500000
vt 0.875000 0.750000
vt 0.625000 0.750000
vt 0.414723 0.789723
vt 0.585277 0.789723
vt 0.585277 0.960277
vt 0.414723 0.960278
vt 0.375000 0.000000
vt 0.625000 0.000000
vt 0.625000 0.250000
vt 0.375000 0.250000
vt 0.125000 0.500000
vt 0.375000 0.500000
vt 0.375000 0.750000
vt 0.125000 0.750000
vt 0.625000 1.000000
vt 0.375000 1.000000
s 0
usemtl Material
f 1/1/1 5/2/1 10/3/1 11/4/1
f 4/5/2 3/6/2 7/7/2 8/8/2
f 9/9/3 10/10/3 5/11/3 6/12/3
f 6/13/4 2/14/4 12/15/4 9/16/4
f 2/14/5 1/1/5 11/4/5 12/15/5
f 6/12/6 5/11/6 1/1/6 2/14/6
f 8/8/7 7/7/7 10/17/7 9/18/7
f 3/6/8 4/5/8 12/15/8 11/4/8
f 7/7/9 3/6/9 11/4/9 10/17/9
f 4/5/10 8/8/10 9/18/10 12/15/10
o Blade
v -0.112330 -0.001695 0.008572
v -0.112330 0.001695 0.008572
v -0.112330 -0.001695 -0.987241
v -0.112330 0.001695 -0.987241
v -0.023385 -0.010954 0.008572
v -0.023385 0.010954 0.008572
v -0.023385 -0.010954 -0.987241
v -0.023385 0.010954 -0.987241
v 0.122410 0.021808 -0.987241
v 0.122410 -0.021808 -0.987241
v 0.122410 -0.021808 0.008572
v 0.122410 0.021808 0.008572
vn -1.0000 -0.0000 -0.0000
vn -0.0000 -0.0000 -1.0000
vn -0.0000 -0.0000 1.0000
vn -0.1035 -0.9946 -0.0000
vn -0.1035 0.9946 -0.0000
vn 1.0000 -0.0000 -0.0000
vn -0.0742 -0.9972 -0.0000
vn -0.0742 0.9972 -0.0000
vt 0.375000 0.000000
vt 0.625000 0.000000
vt 0.625000 0.250000
vt 0.375000 0.250000
vt 0.625000 0.500000
vt 0.375000 0.500000
vt 0.375000 0.750000
vt 0.625000 0.750000
vt 0.625000 1.000000
vt 0.375000 1.000000
vt 0.125000 0.500000
vt 0.125000 0.750000
vt 0.875000 0.500000
vt 0.875000 0.750000
s 0
f 13/19/11 14/20/11 16/21/11 15/22/11
f 15/22/12 16/21/12 20/23/12 19/24/12
f 19/24/12 20/23/12 21/23/12 22/24/12
f 17/25/13 18/26/13 14/27/13 13/28/13
f 15/29/14 19/24/14 17/25/14 13/30/14
f 20/23/15 16/31/15 14/32/15 18/26/15
f 22/24/16 21/23/16 24/26/16 23/25/16
f 18/26/13 17/25/13 23/25/13 24/26/13
f 17/25/17 19/24/17 22/24/17 23/25/17
f 20/23/18 18/26/18 24/26/18 21/23/18
o Grip
v 0.032106 0.020167 0.425684
v 0.032106 -0.020167 0.425684
v 0.055086 -0.020167 0.479415
v 0.055086 0.020167 0.479415
v -0.055086 0.020167 0.479415
v -0.055086 -0.020167 0.479415
v -0.077122 -0.020167 0.406432
v -0.077122 0.020167 0.406432
v 0.070199 -0.020167 0.057335
v 0.070199 0.020167 0.057335
v -0.059846 0.020167 0.413820
v -0.032106 0.020167 0.395514
v -0.001935 0.020167 0.425684
v -0.043970 0.020167 0.453424
v -0.045976 0.020167 0.415710
v -0.035822 0.020167 0.409010
v -0.032106 -0.020167 0.395514
v -0.059846 -0.020167 0.413820
v -0.043970 -0.020167 0.453424
v -0.001935 -0.020167 0.425684
v -0.035822 -0.020167 0.409010
v -0.045976 -0.020167 0.415710
v -0.077122 -0.020167 0.406432
v -0.055086 -0.020167 0.479415
v -0.080186 -0.020167 0.450064
v -0.055086 0.020167 0.479415
v -0.077122 0.020167 0.406432
v -0.080186 0.020167 0.450064
v -0.070199 -0.020167 0.057335
v -0.070199 0.020167 0.057335
v 0.054431 0.020167 0.065501
v 0.032106 0.020167 0.102206
v 0.006964 0.020167 0.077064
v 0.038645 0.020167 0.081042
v 0.032106 -0.020167 0.102206
v 0.054431 -0.020167 0.065501
v 0.006964 -0.020167 0.077064
v 0.038645 -0.020167 0.081042
v -0.032106 0.020167 0.102206
v -0.054431 0.020167 0.065501
v -0.006964 0.020167 0.077064
v -0.038645 0.020167 0.081042
v -0.054431 -0.020167 0.065501
v -0.032106 -0.020167 0.102206
v -0.006964 -0.020167 0.077064
v -0.038645 -0.020167 0.081042
vn -0.0000 1.0000 -0.0000
vn 1.0000 -0.0000 -0.0000
vn 0.4599 -0.0000 0.8880
vn -0.0000 -0.0000 -1.0000
vn -0.0000 -1.0000 -0.0000
vn -0.0000 -0.0000 1.0000
vn 0.9194 -0.0000 -0.3932
vn 0.3932 -0.0000 -0.9194
vn -0.9641 -0.0000 -0.2655
vn -0.5508 -0.0000 -0.8346
vn 0.1350 -0.0000 -0.9908
vn -0.9975 -0.0000 -0.0701
vn -0.7600 -0.0000 0.6499
vn -0.4599 -0.0000 0.8880
vn -1.0000 -0.0000 -0.0000
vn 0.7015 -0.0000 0.7126
vn 0.9554 -0.0000 0.2952
vn -0.7015 -0.0000 0.7126
vn -0.9554 -0.0000 0.2952
vt 0.125000 0.750000
vt 0.222888 0.750000
vt 0.277112 0.750000
vt 0.375000 0.750000
vt 0.375000 0.500000
vt 0.375000 0.018030
vt 0.625000 0.018030
vt 0.625000 0.250000
vt 0.375000 0.250000
vt 0.625000 0.000000
vt 0.375000 0.000000
vt 0.625000 0.750000
vt 0.625000 1.000000
vt 0.375000 1.000000
vt 0.875000 0.500000
vt 0.742464 0.500000
vt 0.625000 0.500000
vt 0.722888 0.750000
vt 0.777112 0.750000
vt 0.875000 0.750000
vt 0.257536 0.500000
vt 0.625000 0.521093
vt 0.625000 0.511658
vt 0.625000 0.506973
vt 0.625000 0.508294
vt 0.375000 0.521093
vt 0.375000 0.511658
vt 0.125000 0.500000
vt 0.875000 0.731970
vt 0.777112 0.750000
vt 0.722888 0.750000
vt 0.625000 0.731927
vt 0.625000 0.731927
vt 0.375000 0.731927
vt 0.375000 0.747141
vt 0.375000 0.758312
vt 0.375000 0.731927
vt 0.222888 0.750000
vt 0.125000 0.731970
s 0
f 55/33/19 34/33/19 54/36/19 64/36/19 65/35/19 57/34/19
f 35/37/19 32/37/19 51/37/19 52/37/19 50/37/19 29/37/19 38/37/19
f 56/38/20 25/41/20 26/40/20 59/39/20
f 60/42/21 33/42/21 34/43/21 55/43/21
f 54/36/22 34/46/22 33/45/22 53/44/22
f 26/47/23 27/47/23 30/49/23 43/49/23 44/48/23
f 28/41/24 29/37/24 30/49/24 27/40/24
f 25/41/25 28/41/25 27/40/25 26/40/25
f 30/49/23 48/49/23 49/49/23 47/49/23 31/49/23 42/49/23 43/49/23
f 42/49/26 31/49/26 32/37/26 35/37/26
f 67/44/23 53/44/23 33/52/23 60/52/23 61/51/23 69/50/23
f 31/49/23 47/49/23 51/37/23 32/37/23
f 35/37/19 38/37/19 37/53/19 36/37/19 40/37/19 39/37/19
f 41/54/23 44/48/23 43/49/23 42/57/23 46/56/23 45/55/23
f 41/54/27 45/55/27 40/59/27 36/58/27
f 45/55/28 46/49/28 39/37/28 40/59/28
f 46/49/29 42/49/29 35/37/29 39/37/29
f 38/37/19 29/37/19 28/60/19 25/60/19 37/53/19
f 47/49/30 49/49/30 52/37/30 51/37/30
f 49/49/31 48/49/31 50/37/31 52/37/31
f 29/37/23 50/37/23 48/49/23 30/49/23
f 41/54/23 68/64/23 69/63/23 61/62/23 59/61/23 26/47/23 44/48/23
f 64/36/32 54/36/32 53/44/32 67/44/32
f 36/58/33 63/66/33 68/65/33 41/54/33
f 55/33/19 57/34/19 58/33/19
f 58/33/19 57/34/19 56/33/19
f 59/52/23 61/51/23 62/52/23
f 62/52/23 61/51/23 60/52/23
f 63/66/19 65/35/19 66/67/19
f 66/67/19 65/35/19 64/68/19
f 67/44/23 69/63/23 70/44/23
f 70/44/23 69/63/23 68/44/23
f 55/43/34 58/43/34 62/42/34 60/42/34
f 58/43/35 56/38/35 59/39/35 62/42/35
f 67/44/36 70/44/36 66/36/36 64/36/36
f 70/44/37 68/65/37 63/66/37 66/36/37
f 25/60/19 56/71/19 57/70/19 65/35/19 63/69/19 36/58/19 37/53/19
o Blade_Collar
v -0.125195 -0.006145 0.015083
v -0.125195 0.006145 0.015083
v -0.125195 -0.006145 -0.041852
v -0.125195 0.006145 -0.041852
v -0.027022 -0.017224 0.015083
v -0.027022 0.017224 0.015083
v -0.027022 -0.017224 -0.041852
v -0.027022 0.017224 -0.041852
v 0.129404 0.029434 -0.041852
v 0.133898 0.024213 -0.041852
v 0.133898 -0.024213 -0.041852
v 0.129404 -0.029434 -0.041852
v 0.129404 -0.029434 0.015083
v 0.133898 -0.024213 0.015083
v 0.133898 0.024213 0.015083
v 0.129404 0.029434 0.015083
vn -1.0000 -0.0000 -0.0000
vn -0.0000 -0.0000 -1.0000
vn -0.0778 -0.9970 -0.0000
vn -0.0000 -0.0000 1.0000
vn -0.1121 -0.9937 -0.0000
vn -0.1121 0.9937 -0.0000
vn -0.0778 0.9970 -0.0000
vn 0.7579 -0.6524 -0.0000
vn 0.7579 0.6524 -0.0000
vn 1.0000 -0.0000 -0.0000
vt 0.375000 0.000000
vt 0.625000 0.000000
vt 0.625000 0.250000
vt 0.375000 0.250000
vt 0.625000 0.500000
vt 0.375000 0.500000
vt 0.375000 0.750000
vt 0.625000 0.750000
vt 0.625000 1.000000
vt 0.375000 1.000000
vt 0.125000 0.500000
vt 0.125000 0.750000
vt 0.875000 0.500000
vt 0.875000 0.750000
vt 0.625000 0.500000
vt 0.398386 0.750000
vt 0.601614 0.750000
vt 0.601614 0.500000
vt 0.398386 0.500000
s 0
usemtl Material.001
f 71/72/38 72/73/38 74/74/38 73/75/38
f 73/75/39 74/74/39 78/76/39 77/77/39
f 75/78/40 77/77/40 82/77/40 83/78/40
f 75/78/41 76/79/41 72/80/41 71/81/41
f 73/82/42 77/77/42 75/78/42 71/83/42
f 78/76/43 74/84/43 72/85/43 76/79/43
f 78/76/44 76/79/44 86/79/44 79/86/44
f 76/79/41 75/78/41 83/78/41 84/87/41 85/88/41 86/79/41
f 77/77/39 78/76/39 79/76/39 80/89/39 81/90/39 82/77/39
f 83/78/45 82/77/45 81/90/45 84/87/45
f 79/86/46 86/79/46 85/88/46 80/89/46
f 81/90/47 80/89/47 85/88/47 84/87/47
